<svg width="223" height="83" viewBox="0 0 223 83" fill="none" xmlns="http://www.w3.org/2000/svg">
<path d="M3.12 21.976H12.72V55H3.12V21.976ZM14.736 21.976H25.968V29.32H14.736V21.976ZM14.736 35.608H24.192V42.952H14.736V35.608ZM30.7763 21.976H40.3763V55H30.7763V21.976ZM44.3123 43.768H42.3923V36.424H44.0243C45.0163 36.424 45.7683 36.392 46.2803 36.328C46.7923 36.232 47.1923 36.072 47.4803 35.848C47.7363 35.624 47.9123 35.288 48.0083 34.84C48.1043 34.392 48.1523 33.736 48.1523 32.872C48.1523 32.008 48.1043 31.352 48.0083 30.904C47.9123 30.424 47.7363 30.072 47.4803 29.848C47.2243 29.624 46.8403 29.48 46.3283 29.416C45.8483 29.352 45.0803 29.32 44.0243 29.32H42.3923V21.976H47.3363C49.6083 21.976 51.4483 22.2 52.8563 22.648C54.2643 23.096 55.3523 23.784 56.1203 24.712C56.8243 25.576 57.2883 26.648 57.5123 27.928C57.7683 29.208 57.8963 30.856 57.8963 32.872C57.8963 35.464 57.6563 37.464 57.1763 38.872C56.5043 40.664 55.3203 41.928 53.6243 42.664L58.6163 55H48.5363L44.3123 43.768ZM81.456 38.488C81.456 35.704 81.44 33.88 81.408 33.016C81.344 31.704 81.168 30.76 80.88 30.184C80.592 29.576 80.128 29.208 79.488 29.08C78.848 28.984 77.936 28.936 76.752 28.936C75.376 28.936 74.48 29 74.064 29.128V21.64C74.352 21.608 74.784 21.592 75.36 21.592H76.752C80.336 21.592 83.104 21.88 85.056 22.456C87.04 23 88.48 23.912 89.376 25.192C90.208 26.376 90.72 27.928 90.912 29.848C91.136 31.768 91.248 34.648 91.248 38.488C91.248 41.848 91.168 44.44 91.008 46.264C90.88 48.056 90.528 49.544 89.952 50.728C89.312 52.072 88.32 53.096 86.976 53.8C85.664 54.504 83.824 54.968 81.456 55.192V38.488ZM76.752 55.384C72.08 55.384 68.72 54.872 66.672 53.848C65.616 53.336 64.784 52.648 64.176 51.784C63.568 50.92 63.12 49.848 62.832 48.568C62.576 47.448 62.416 46.168 62.352 44.728C62.288 43.256 62.256 41.176 62.256 38.488C62.256 35.128 62.32 32.552 62.448 30.76C62.608 28.968 62.976 27.464 63.552 26.248C64.192 24.936 65.168 23.928 66.48 23.224C67.792 22.52 69.648 22.04 72.048 21.784V38.488C72.048 40.376 72.08 42.184 72.144 43.912C72.208 45.224 72.368 46.184 72.624 46.792C72.912 47.4 73.376 47.752 74.016 47.848C74.56 47.976 75.472 48.04 76.752 48.04C78.064 48.04 78.96 47.992 79.44 47.896V55.336C79.152 55.368 78.72 55.384 78.144 55.384H76.752ZM96.6356 23.32V21.976H106.236L124.764 53.608V55H115.212L96.6356 23.32ZM115.644 34.024V21.976H124.764V49.624L115.644 34.024ZM96.6356 27.304L105.756 42.904V55H96.6356V27.304ZM128.307 21.976H155.331V29.656H128.307V21.976ZM136.995 31.576H146.595V55H136.995V31.576ZM158.022 37.768H171.702V44.92H158.022V37.768ZM177.073 21.976H186.673V55H177.073V21.976ZM192.917 21.976H202.517V55H192.917V21.976ZM206.453 43.768H204.533V36.424H206.165C207.157 36.424 207.909 36.392 208.421 36.328C208.933 36.232 209.333 36.072 209.621 35.848C209.877 35.624 210.053 35.288 210.149 34.84C210.245 34.392 210.293 33.736 210.293 32.872C210.293 32.008 210.245 31.352 210.149 30.904C210.053 30.424 209.877 30.072 209.621 29.848C209.365 29.624 208.981 29.48 208.469 29.416C207.989 29.352 207.221 29.32 206.165 29.32H204.533V21.976H209.477C211.749 21.976 213.589 22.2 214.997 22.648C216.405 23.096 217.493 23.784 218.261 24.712C218.965 25.576 219.429 26.648 219.653 27.928C219.909 29.208 220.037 30.856 220.037 32.872C220.037 35.464 219.797 37.464 219.317 38.872C218.645 40.664 217.461 41.928 215.765 42.664L220.757 55H210.677L206.453 43.768Z" fill="white"/>
<path d="M7.069 80.156C5.626 80.156 4.17 79.727 3.364 79.103L4.079 77.517C4.846 78.076 5.99 78.466 7.082 78.466C8.33 78.466 8.837 78.05 8.837 77.491C8.837 75.788 3.546 76.958 3.546 73.578C3.546 72.031 4.794 70.744 7.381 70.744C8.525 70.744 9.695 71.017 10.54 71.55L9.89 73.149C9.045 72.668 8.174 72.434 7.368 72.434C6.12 72.434 5.639 72.902 5.639 73.474C5.639 75.151 10.93 73.994 10.93 77.335C10.93 78.856 9.669 80.156 7.069 80.156ZM22.132 78.31H27.085V80H20.039V70.9H26.916V72.59H22.132V74.566H26.357V76.204H22.132V78.31ZM38.5237 78.31H43.4767V80H36.4307V70.9H43.3077V72.59H38.5237V74.566H42.7487V76.204H38.5237V78.31ZM66.059 80V72.616H63.147V70.9H71.077V72.616H68.165V80H66.059ZM86.1202 70.9H88.2262V80H86.1202V76.269H81.9862V80H79.8802V70.9H81.9862V74.488H86.1202V70.9ZM100.142 78.31H105.095V80H98.0492V70.9H104.926V72.59H100.142V74.566H104.367V76.204H100.142V78.31ZM129.836 80.156C127.249 80.156 125.715 78.674 125.715 75.996V70.9H127.821V75.918C127.821 77.647 128.575 78.362 129.849 78.362C131.136 78.362 131.877 77.647 131.877 75.918V70.9H133.957V75.996C133.957 78.674 132.423 80.156 129.836 80.156ZM149.974 70.9H152.054V80H150.325L145.788 74.475V80H143.708V70.9H145.45L149.974 76.425V70.9ZM164.867 80.156C163.424 80.156 161.968 79.727 161.162 79.103L161.877 77.517C162.644 78.076 163.788 78.466 164.88 78.466C166.128 78.466 166.635 78.05 166.635 77.491C166.635 75.788 161.344 76.958 161.344 73.578C161.344 72.031 162.592 70.744 165.179 70.744C166.323 70.744 167.493 71.017 168.338 71.55L167.688 73.149C166.843 72.668 165.972 72.434 165.166 72.434C163.918 72.434 163.437 72.902 163.437 73.474C163.437 75.151 168.728 73.994 168.728 77.335C168.728 78.856 167.467 80.156 164.867 80.156ZM179.93 78.31H184.883V80H177.837V70.9H184.714V72.59H179.93V74.566H184.155V76.204H179.93V78.31ZM196.321 78.31H201.274V80H194.228V70.9H201.105V72.59H196.321V74.566H200.546V76.204H196.321V78.31ZM216.886 70.9H218.966V80H217.237L212.7 74.475V80H210.62V70.9H212.362L216.886 76.425V70.9Z" fill="white"/>
</svg>
